<?xml version="1.0" standalone="no"?>
<!DOCTYPE svg PUBLIC "-//W3C//DTD SVG 20010904//EN"
 "http://www.w3.org/TR/2001/REC-SVG-20010904/DTD/svg10.dtd">
<svg version="1.0" xmlns="http://www.w3.org/2000/svg"
 width="2000.000000pt" height="2000.000000pt" viewBox="0 0 2000.000000 2000.000000"
 preserveAspectRatio="xMidYMid meet">

<g transform="translate(0.000000,2000.000000) scale(0.100000,-0.100000)"
fill="#000000" stroke="none">
<path d="M12275 14759 c-115 -11 -235 -36 -305 -61 -58 -22 -131 -66 -137 -83
-2 -6 32 -31 74 -55 286 -160 535 -332 640 -441 89 -91 123 -146 123 -200 0
-87 -81 -99 -352 -49 -89 16 -190 30 -223 29 l-60 -1 -91 -97 c-50 -53 -93
-102 -95 -108 -2 -6 -161 -48 -354 -93 -192 -44 -363 -87 -378 -95 -21 -11
-56 -13 -145 -8 -268 12 -742 -72 -1140 -203 -150 -50 -222 -84 -337 -159
-184 -120 -352 -309 -450 -505 -53 -106 -70 -115 -263 -139 -82 -11 -166 -26
-187 -35 -20 -9 -56 -37 -78 -62 -51 -58 -124 -94 -192 -94 -84 0 -629 50
-653 60 -14 6 -25 22 -29 41 -4 21 -21 41 -57 68 -65 48 -155 145 -190 205
-56 95 -77 173 -87 311 -6 97 -12 133 -23 141 -17 12 -240 60 -436 94 l-125
22 -600 -72 c-849 -101 -971 -116 -984 -124 -22 -14 -10 -57 32 -115 42 -60
44 -61 617 -394 686 -398 1008 -586 1151 -672 58 -34 139 -81 180 -102 41 -22
97 -54 124 -71 79 -48 156 -94 205 -120 80 -43 919 -529 929 -538 3 -3 -1 -10
-7 -16 -9 -9 -28 -7 -80 10 -83 27 -168 28 -383 7 -210 -21 -286 -33 -308 -47
-11 -6 -37 -34 -58 -61 -21 -27 -47 -61 -59 -75 l-20 -25 -70 40 c-248 144
-572 224 -909 225 -150 1 -295 -16 -295 -33 0 -5 4 -9 9 -9 5 0 88 -13 183
-29 361 -61 581 -150 780 -315 108 -89 164 -182 65 -108 -128 96 -291 174
-457 217 -142 37 -395 46 -552 20 -236 -38 -470 -145 -668 -304 -366 -293
-618 -785 -696 -1361 -21 -152 -23 -499 -5 -645 33 -260 96 -482 187 -662 50
-100 146 -244 186 -279 16 -16 16 -10 -6 49 -111 292 -177 695 -162 972 23
414 141 777 354 1096 125 186 342 375 534 464 313 144 676 134 935 -27 64 -41
177 -152 188 -187 7 -24 17 -25 120 -11 38 5 71 7 73 6 1 -2 -33 -16 -75 -31
-43 -16 -211 -84 -373 -151 -163 -67 -315 -127 -339 -134 -34 -9 -61 -8 -139
5 -241 42 -423 -39 -558 -246 -69 -106 -97 -201 -102 -349 -7 -194 27 -300
128 -401 182 -183 515 -127 700 119 55 73 109 177 136 260 30 96 71 137 158
158 l29 7 -6 -40 c-11 -68 -57 -194 -105 -288 -78 -151 -244 -302 -409 -370
-57 -24 -58 -24 -22 -25 53 0 155 34 224 75 158 95 312 316 394 567 24 72 60
112 109 125 15 3 268 68 562 143 294 75 537 132 539 127 2 -5 -1 -13 -5 -17
-5 -5 -164 -63 -354 -130 -225 -79 -353 -129 -368 -144 -19 -19 -26 -42 -38
-137 -66 -507 -300 -847 -731 -1064 -100 -51 -91 -57 29 -19 319 101 559 326
699 658 47 110 50 100 8 -21 -86 -243 -226 -439 -403 -564 -56 -40 -64 -48
-40 -44 30 6 740 120 943 151 l114 18 42 91 c23 49 59 136 80 192 23 62 44
104 54 107 9 3 133 26 276 52 143 26 263 50 268 54 4 3 -13 32 -37 63 -57 73
-105 147 -146 222 l-32 60 38 -45 c266 -309 550 -554 684 -590 28 -7 294 34
1402 219 752 125 1370 230 1373 233 3 3 -3 39 -15 79 -83 299 -97 628 -40 909
20 99 75 278 89 293 4 4 -1 -32 -11 -80 -62 -310 -40 -675 61 -983 39 -116
134 -319 199 -420 88 -139 232 -295 387 -421 84 -68 292 -179 409 -219 289
-98 645 -121 958 -60 964 187 1778 1163 1879 2254 23 254 -3 572 -67 796 -27
92 -94 273 -100 268 -1 -2 8 -46 21 -98 47 -185 60 -308 60 -560 0 -137 -6
-275 -13 -330 -55 -400 -188 -796 -348 -1036 -30 -46 -59 -86 -64 -89 -5 -3
18 51 51 119 111 233 196 529 235 821 22 164 25 578 5 740 -31 255 -83 433
-191 650 -136 275 -321 466 -580 601 -55 29 -56 29 -235 29 -148 -1 -199 -5
-290 -23 -340 -71 -773 -249 -891 -368 -70 -69 -123 -202 -124 -305 l0 -36 58
29 c93 45 165 60 324 65 137 5 152 4 240 -21 377 -108 610 -363 712 -778 86
-349 38 -711 -144 -1083 -165 -336 -395 -574 -694 -716 -192 -91 -321 -122
-496 -122 -149 0 -261 26 -395 93 -290 144 -493 442 -551 810 -22 141 -15 403
16 545 47 219 141 447 255 621 61 92 184 229 195 217 4 -4 90 -189 190 -411
203 -446 210 -457 334 -538 42 -27 76 -53 76 -58 0 -18 -135 -1 -184 24 -88
42 -113 78 -211 303 -103 236 -89 229 -160 82 -62 -126 -95 -248 -102 -375
-16 -303 102 -542 322 -651 421 -208 932 169 1021 754 38 246 -20 489 -149
620 -68 70 -126 103 -228 128 -89 23 -180 23 -284 -1 -83 -18 -82 -16 -46
-122 50 -142 98 -262 152 -377 27 -57 49 -110 49 -117 0 -9 -12 -14 -36 -14
-42 0 -230 37 -254 50 -9 5 -38 57 -65 117 -26 59 -162 360 -302 668 -174 382
-256 575 -260 607 -9 78 11 127 101 240 98 123 215 236 275 265 41 21 45 21
84 5 51 -20 246 -22 382 -4 180 24 177 25 70 -18 -117 -47 -221 -74 -372 -96
-59 -8 -128 -19 -153 -23 -43 -8 -42 -9 30 -11 262 -7 301 -1 852 139 286 73
399 87 603 73 103 -7 159 -16 213 -34 39 -13 72 -22 72 -19 0 9 -95 89 -133
111 -36 21 -211 60 -271 60 -45 0 -49 8 -21 42 23 27 37 106 18 96 -107 -55
-215 -73 -373 -63 -222 14 -402 45 -730 124 -411 99 -464 97 -643 -22 -390
-260 -1047 -1030 -1289 -1510 -134 -268 -237 -628 -282 -987 -18 -144 -36
-381 -36 -490 l-1 -75 -25 65 c-36 91 -89 304 -111 440 -25 161 -25 592 0 765
27 180 22 171 66 124 41 -42 69 -49 94 -21 8 9 45 87 82 172 37 85 100 222
141 305 40 82 72 151 70 152 -11 11 -217 -45 -341 -92 -38 -14 -65 -22 -60
-16 36 35 206 128 308 168 76 29 135 59 157 80 32 28 150 213 150 234 0 19
-287 -50 -429 -104 -86 -32 -92 -33 -65 -12 72 59 258 154 372 190 149 47 183
61 215 89 37 32 180 240 168 244 -36 12 -414 -86 -536 -138 -25 -11 -45 -17
-45 -15 0 10 158 110 239 151 102 51 163 73 315 115 67 18 124 41 147 57 47
35 214 243 242 302 16 34 22 63 21 120 0 88 -7 104 -106 242 -38 54 -67 102
-63 107 6 11 148 97 212 130 l41 20 26 -34 c40 -52 297 -287 395 -361 213
-160 641 -323 1026 -390 121 -21 361 -25 421 -6 96 29 154 94 154 173 0 27 -3
49 -6 49 -3 0 -19 -11 -36 -25 -59 -50 -98 -30 -148 78 -57 124 -136 341 -161
445 -18 74 -20 97 -11 117 15 33 24 32 68 -7 100 -88 -123 189 -241 300 -81
75 -216 178 -303 229 l-39 23 23 -68 c30 -87 30 -124 0 -158 -21 -25 -29 -27
-81 -26 -135 3 -348 67 -518 154 -109 56 -125 74 -26 29 95 -43 264 -97 346
-111 171 -28 234 33 192 185 -10 36 -12 38 -20 18 -12 -33 -46 -46 -100 -40
-114 14 -257 110 -487 327 -190 179 -263 242 -350 300 -72 49 -72 50 -45 57
42 12 357 8 447 -5 43 -7 106 -23 140 -37 l61 -24 -35 30 c-60 50 -188 109
-275 124 -100 19 -410 27 -530 14z m-186 -1173 c25 -40 28 -114 7 -155 -14
-25 -43 -43 -156 -95 -16 -8 -27 -23 -30 -41 -6 -33 -6 -33 -540 -175 -134
-35 -214 -62 -257 -86 -73 -41 -102 -42 -210 -10 -161 48 -214 52 -366 27
-184 -30 -726 -165 -713 -178 2 -2 85 7 183 21 224 32 472 56 573 56 64 0 84
-4 121 -25 24 -14 76 -41 116 -60 98 -46 100 -56 32 -182 -307 -574 -443 -780
-594 -904 -45 -37 -53 -40 -90 -35 -64 10 -230 99 -360 193 -66 47 -176 123
-245 167 -69 43 -183 122 -254 173 -70 52 -130 92 -133 90 -2 -3 17 -35 43
-73 25 -38 48 -73 51 -78 3 -4 -3 -5 -13 -2 -17 5 -289 32 -532 52 -96 8 -103
15 -77 74 13 28 28 43 55 54 43 17 170 36 241 36 100 0 134 30 207 180 71 145
203 294 372 420 149 110 320 182 603 255 328 84 537 115 768 115 l149 0 0 -41
c0 -34 6 -48 38 -79 63 -63 63 -63 502 50 215 55 404 107 420 115 44 23 73 77
68 130 -2 25 -2 45 -1 45 1 0 11 -15 22 -34z m741 -62 c210 -39 490 -176 774
-376 l100 -70 -59 64 c-124 135 -253 244 -361 307 -78 46 -68 50 47 21 171
-44 227 -78 393 -239 161 -157 326 -384 326 -448 0 -45 -20 -52 -110 -41 -228
27 -390 77 -625 192 -247 121 -414 248 -607 461 -138 152 -136 145 -39 145 43
0 116 -7 161 -16z m-1620 -127 c21 -37 4 -81 -34 -85 -38 -5 -66 23 -66 64 0
64 67 78 100 21z m-4462 -267 c52 -1 464 -77 473 -88 3 -4 11 -57 17 -118 16
-163 67 -283 164 -390 l37 -40 -102 23 c-56 13 -156 31 -222 40 -149 21 -150
22 -251 229 -82 168 -123 217 -209 249 -47 18 -60 18 -467 1 -230 -11 -420
-17 -423 -15 -2 3 204 24 457 48 254 23 467 45 475 48 8 3 17 20 20 37 l6 31
10 -28 c5 -15 12 -27 15 -27z m-1040 -117 c-10 -2 -26 -2 -35 0 -10 3 -2 5 17
5 19 0 27 -2 18 -5z m152 -399 c0 -2 -9 0 -20 6 -11 6 -20 13 -20 16 0 2 9 0
20 -6 11 -6 20 -13 20 -16z m760 -391 c593 -309 1244 -641 1572 -804 l306
-152 29 20 c36 26 79 48 141 72 l49 20 -82 -82 c-45 -45 -94 -101 -109 -124
-25 -38 -31 -41 -50 -31 -104 55 -575 318 -1291 721 -1077 606 -1280 721
-1290 730 -11 11 151 -72 725 -370z m3045 -664 c50 -33 167 -98 260 -145 225
-112 265 -155 265 -292 0 -79 -77 -586 -105 -688 -113 -416 -352 -725 -694
-896 -121 -61 -143 -62 -31 -2 263 141 453 373 563 691 62 177 94 371 116 714
16 236 0 271 -170 375 -127 77 -295 234 -338 314 l-25 45 35 -28 c19 -15 75
-54 124 -88z m4888 -271 c395 -287 514 -919 298 -1569 -170 -509 -522 -896
-952 -1047 -168 -59 -283 -77 -489 -76 -167 0 -195 3 -282 27 -155 41 -339
140 -399 214 -8 9 11 -3 41 -27 73 -57 215 -124 320 -150 108 -27 330 -37 455
-21 216 28 424 103 591 212 213 140 356 296 501 548 296 513 353 1157 138
1581 -63 125 -168 252 -272 331 -32 23 -62 47 -68 53 -17 16 56 -31 118 -76z
m-605 -555 c109 -127 160 -338 133 -548 -29 -226 -101 -385 -240 -528 -231
-240 -546 -289 -771 -120 -33 24 -60 46 -60 49 0 2 27 -14 61 -36 170 -110
344 -118 534 -25 158 77 268 189 351 360 150 308 129 691 -48 874 -25 25 -34
39 -21 33 12 -7 39 -33 61 -59z m-7659 -1411 c46 -34 65 -69 69 -131 6 -81
-18 -148 -75 -211 -71 -79 -142 -108 -218 -89 -112 28 -148 164 -80 298 28 56
109 133 157 149 43 14 117 7 147 -16z m5438 -409 c85 -17 122 -33 73 -33 -19
0 -396 -61 -1775 -286 l-710 -116 -50 17 c-27 9 -77 33 -109 53 -64 38 -211
158 -261 213 -33 35 -26 33 55 -21 141 -94 297 -160 379 -160 23 0 256 34 518
75 263 41 755 117 1093 170 338 53 620 97 625 100 22 8 75 4 162 -12z m-4340
-165 c-3 -8 -6 -5 -6 6 -1 11 2 17 5 13 3 -3 4 -12 1 -19z"/>
<path d="M7035 7734 c-110 -26 -152 -49 -187 -101 -25 -39 -24 -125 2 -167 73
-120 377 -123 461 -5 33 47 36 113 7 169 -18 36 -35 51 -78 72 -54 27 -158 43
-205 32z"/>
<path d="M7775 7643 c-132 -13 -241 -26 -244 -28 -2 -3 -19 -80 -37 -172 -179
-914 -255 -1306 -252 -1308 4 -4 490 44 495 48 1 2 36 172 77 378 78 392 101
476 147 521 33 33 59 35 85 7 16 -17 19 -35 18 -98 -3 -134 -63 -257 -155
-314 l-49 -30 0 -76 c1 -193 70 -339 193 -403 35 -18 59 -22 137 -23 84 0 102
3 155 28 70 33 109 67 136 120 l20 37 -25 10 c-13 5 -36 21 -50 37 -30 32
-131 282 -119 293 4 4 25 13 45 19 105 34 184 146 195 277 11 138 -45 241
-153 278 -113 39 -303 29 -413 -20 -30 -13 -56 -23 -57 -21 -2 2 6 27 17 56
11 29 35 132 54 229 40 199 37 182 28 181 -5 -1 -116 -12 -248 -26z"/>
<path d="M5521 7378 c-18 -89 -75 -388 -127 -663 -52 -275 -97 -507 -100 -516
-4 -14 20 -17 203 -22 539 -15 841 41 981 184 125 127 133 401 15 510 -31 30
-92 62 -138 74 l-30 7 38 14 c51 18 141 79 173 117 46 55 67 115 67 192 0 102
-35 156 -132 205 -91 46 -153 52 -547 57 l-371 5 -32 -164z m635 7 c36 -23 54
-73 54 -148 0 -148 -70 -238 -202 -261 -28 -5 -38 -3 -38 6 0 7 18 103 40 213
22 110 40 204 40 209 0 13 78 0 106 -19z m-127 -583 c58 -43 66 -65 66 -185 0
-102 -2 -117 -27 -162 -44 -83 -106 -125 -186 -125 l-38 0 47 248 c27 136 48
249 49 251 1 9 67 -11 89 -27z"/>
<path d="M10236 7513 c-3 -16 -33 -179 -66 -363 -32 -184 -84 -474 -115 -644
-30 -170 -55 -313 -55 -318 0 -5 180 -8 428 -6 l427 3 57 27 c69 32 88 64 88
146 0 76 -16 126 -39 116 -9 -4 -91 -9 -183 -12 -159 -4 -168 -4 -168 14 0 11
41 252 90 537 50 285 90 520 90 523 0 2 -123 4 -274 4 l-274 0 -6 -27z"/>
<path d="M7045 7254 c-121 -12 -230 -23 -241 -23 -20 -1 -25 -18 -68 -238 -81
-423 -89 -475 -90 -583 -1 -91 2 -111 22 -148 45 -84 155 -129 291 -119 129 9
232 61 270 136 l20 37 -35 13 c-47 17 -74 63 -74 125 0 40 127 744 146 809 3
10 0 16 -8 16 -7 -1 -112 -12 -233 -25z"/>
<path d="M9165 7264 c-371 -55 -578 -263 -602 -608 -15 -216 58 -379 206 -459
166 -91 476 -68 633 48 64 47 97 93 110 157 12 60 7 94 -20 128 l-18 22 -53
-36 c-87 -59 -219 -88 -298 -67 -72 19 -116 100 -98 180 6 29 6 29 103 36 364
25 532 135 532 345 -1 130 -43 187 -170 230 -64 22 -248 35 -325 24z m105
-104 c29 -16 43 -80 31 -146 -27 -143 -110 -246 -218 -269 -30 -6 -33 -4 -33
18 0 44 57 252 83 304 27 52 78 103 103 103 9 0 24 -5 34 -10z"/>
<path d="M11596 7254 c-207 -38 -376 -158 -460 -328 -47 -95 -66 -181 -66
-303 0 -224 63 -353 210 -426 90 -46 185 -61 320 -54 124 8 200 26 295 73 122
60 220 156 282 277 79 156 85 435 13 577 -80 158 -323 233 -594 184z m176
-152 c14 -36 4 -265 -17 -407 -35 -230 -77 -368 -126 -410 -36 -30 -40 -30
-69 -7 -31 25 -38 85 -28 241 14 227 71 494 124 574 41 63 93 67 116 9z"/>
<path d="M12834 7260 c-206 -37 -382 -168 -471 -350 -55 -113 -68 -173 -67
-305 0 -97 3 -117 26 -167 47 -102 143 -146 298 -135 90 6 175 34 248 82 l53
36 -6 -38 c-11 -62 -52 -214 -74 -273 -55 -147 -147 -224 -201 -170 -18 18
-21 30 -17 63 3 22 15 53 27 69 21 29 21 30 3 50 -40 44 -113 71 -209 76 -114
6 -179 -13 -234 -68 -62 -62 -71 -168 -22 -238 83 -115 510 -161 768 -81 82
25 202 106 254 171 53 67 102 170 135 283 30 104 200 993 192 1002 -3 3 -92
-2 -197 -12 -149 -13 -198 -14 -223 -5 -42 15 -219 21 -283 10z m183 -133 c9
-9 1 -68 -37 -262 -52 -269 -59 -294 -84 -343 -19 -36 -43 -52 -81 -52 -20 0
-29 8 -41 35 -28 69 -10 287 37 441 36 116 74 180 119 197 21 8 72 -1 87 -16z"/>
<path d="M14055 7256 c-349 -68 -556 -335 -532 -686 16 -219 106 -347 282
-403 91 -29 304 -31 405 -4 318 84 507 350 486 684 -15 220 -96 338 -274 394
-86 27 -268 34 -367 15z m174 -162 c11 -32 11 -65 2 -184 -20 -261 -66 -497
-114 -585 -42 -76 -104 -80 -128 -8 -35 108 34 594 107 749 43 91 106 104 133
28z"/>
<path d="M7246 5213 c-21 -109 -40 -204 -43 -211 -4 -10 3 -13 23 -10 l28 3
42 208 41 207 -26 0 c-27 0 -27 0 -65 -197z"/>
<path d="M6893 5378 c-43 -14 -83 -58 -89 -99 -8 -46 22 -82 84 -104 26 -10
60 -22 75 -27 58 -22 59 -80 1 -104 -46 -19 -101 -17 -153 7 -45 20 -60 15
-61 -17 0 -21 82 -47 146 -47 94 1 151 39 161 110 6 50 -20 75 -118 111 -72
27 -74 29 -77 64 -3 32 1 39 27 52 36 19 119 21 156 4 22 -10 28 -9 36 3 14
22 5 33 -37 46 -48 14 -108 14 -151 1z"/>
<path d="M9745 5381 c-107 -26 -175 -116 -175 -232 0 -63 28 -109 84 -138 59
-30 134 -32 198 -3 44 19 47 22 58 79 6 32 14 68 17 81 4 18 1 22 -20 22 -22
0 -27 -6 -36 -50 -6 -28 -11 -58 -11 -66 0 -42 -131 -56 -185 -20 -88 58 -62
210 45 264 56 28 123 29 174 1 36 -19 40 -19 55 -4 15 15 14 18 -7 35 -43 36
-125 48 -197 31z"/>
<path d="M11621 5213 c-18 -93 -35 -180 -38 -195 -5 -25 -2 -28 20 -28 23 0
27 6 37 58 6 31 15 71 19 87 l7 30 104 3 c57 1 109 1 116 -2 9 -3 7 -25 -6
-90 l-17 -86 27 0 28 0 36 188 c20 103 36 190 36 195 0 4 -11 7 -24 7 -22 0
-26 -6 -36 -57 -23 -117 -11 -108 -138 -111 -132 -3 -124 -17 -87 146 5 19 1
22 -23 22 l-28 0 -33 -167z"/>
<path d="M7540 5268 c-61 -32 -83 -66 -88 -138 -5 -69 10 -100 60 -126 42 -22
138 -15 176 12 44 32 74 101 69 157 -9 101 -114 147 -217 95z m148 -54 c25
-29 28 -61 8 -108 -31 -75 -121 -102 -173 -50 -22 22 -25 32 -21 75 6 54 26
84 73 105 39 18 84 9 113 -22z"/>
<path d="M8000 5279 c-34 -14 -80 -58 -92 -89 -15 -39 -11 -108 7 -136 19 -29
71 -54 112 -54 15 0 47 9 70 19 l41 19 -8 -26 c-15 -49 -20 -58 -49 -75 -37
-21 -89 -22 -142 -1 -35 14 -42 15 -50 3 -14 -23 -11 -29 26 -45 52 -21 153
-18 193 6 50 31 67 70 96 218 15 75 29 145 32 155 4 13 -1 17 -19 17 -18 0
-27 -7 -31 -25 l-6 -24 -36 24 c-39 27 -98 32 -144 14z m138 -65 c26 -29 28
-63 7 -104 -22 -43 -53 -60 -107 -60 -60 0 -88 24 -88 75 0 61 27 98 90 119
28 9 75 -5 98 -30z"/>
<path d="M8460 5268 c-102 -52 -121 -216 -31 -262 38 -20 107 -20 145 -1 35
18 36 18 36 0 0 -21 37 -19 44 3 4 14 56 271 56 280 0 1 -11 2 -24 2 -17 0
-26 -7 -30 -26 l-7 -27 -24 23 c-36 34 -108 38 -165 8z m116 -28 c48 0 71 -89
39 -150 -38 -74 -156 -80 -185 -10 -31 74 48 183 118 164 8 -2 20 -4 28 -4z"/>
<path d="M8877 5152 c-15 -76 -27 -144 -27 -150 0 -7 10 -12 23 -12 22 0 25 8
42 97 22 121 47 153 119 153 77 0 89 -32 61 -160 -19 -87 -19 -90 9 -90 21 0
25 7 40 83 25 126 22 160 -15 191 -36 30 -97 35 -143 11 -35 -18 -36 -18 -36
0 0 9 -9 15 -23 15 -21 0 -24 -9 -50 -138z"/>
<path d="M10185 5276 c-45 -20 -92 -78 -100 -125 -9 -56 1 -93 35 -126 42 -40
131 -47 188 -15 76 43 111 159 68 225 -33 50 -125 70 -191 41z m138 -58 c19
-22 23 -82 7 -122 -12 -32 -65 -66 -102 -66 -68 0 -106 48 -93 117 16 86 135
132 188 71z"/>
<path d="M10625 5276 c-62 -28 -95 -85 -95 -164 0 -80 48 -122 140 -122 54 0
110 22 110 44 0 22 -11 25 -45 10 -73 -30 -155 -3 -155 51 0 24 1 24 123 27
l122 3 3 26 c5 41 -23 96 -60 119 -38 23 -99 26 -143 6z m114 -41 c28 -14 41
-33 41 -61 0 -11 -20 -14 -100 -14 l-101 0 16 30 c28 54 90 73 144 45z"/>
<path d="M11030 5272 c-47 -23 -66 -63 -50 -103 10 -24 23 -32 69 -45 82 -23
81 -22 88 -40 17 -44 -80 -70 -152 -40 -33 14 -45 8 -45 -23 0 -16 54 -31 113
-31 99 0 151 45 133 114 -6 24 -27 35 -121 62 -22 7 -31 16 -33 36 -4 37 49
55 115 38 37 -9 48 -8 54 2 14 21 11 25 -22 37 -47 16 -109 13 -149 -7z"/>
<path d="M12215 5276 c-62 -28 -95 -85 -95 -164 0 -80 48 -122 140 -122 54 0
110 22 110 44 0 22 -11 25 -45 10 -73 -30 -155 -3 -155 51 0 24 1 24 123 27
l122 3 3 26 c5 41 -23 96 -60 119 -38 23 -99 26 -143 6z m114 -41 c28 -14 41
-33 41 -61 0 -11 -20 -14 -100 -14 l-101 0 16 30 c28 54 90 73 144 45z"/>
<path d="M12605 5268 c-7 -29 -55 -270 -55 -274 0 -2 11 -4 24 -4 27 0 29 4
47 100 19 106 52 150 111 150 16 0 28 4 28 9 0 5 3 16 6 25 9 23 -32 21 -79
-3 -37 -19 -38 -19 -32 0 5 15 1 19 -19 19 -18 0 -27 -6 -31 -22z"/>
<path d="M12945 5267 c-101 -56 -113 -217 -20 -261 41 -20 115 -21 160 -2 37
16 40 22 26 44 -7 12 -14 11 -39 -2 -58 -30 -130 -15 -151 31 -6 13 -11 28
-11 33 0 6 52 10 125 10 l125 0 0 40 c0 23 -7 55 -16 71 -30 59 -127 76 -199
36z m146 -43 c11 -9 19 -28 19 -41 0 -23 -2 -23 -95 -23 -52 0 -95 4 -95 9 0
15 42 62 64 72 29 12 85 3 107 -17z"/>
</g>
</svg>
